# Blender 4.0.1
# www.blender.org
o Cube
v -10.000000 -0.500000 10.000000
v -10.000000 0.500000 10.000000
v -10.000000 -0.500000 -10.000000
v -10.000000 0.500000 -10.000000
v 10.000000 -0.500000 10.000000
v 10.000000 0.500000 10.000000
v 10.000000 -0.500000 -10.000000
v 10.000000 0.500000 -10.000000
v 6.000000 -0.500000 -10.000000
v 6.000000 0.500000 -10.000000
v 6.000000 -0.500000 10.000000
v 6.000000 0.500000 10.000000
v -9.999999 -0.500000 -9.000000
v -9.999999 -0.500000 -3.000000
v -9.999999 -0.500000 3.000000
v -9.999999 -0.500000 9.000000
v -9.999999 0.500000 9.000000
v -9.999999 0.500000 3.000000
v -9.999999 0.500000 -3.000000
v -9.999999 0.500000 -9.000000
v 9.999999 -0.500000 9.000000
v 9.999999 -0.500000 3.000000
v 9.999999 -0.500000 -3.000000
v 9.999999 -0.500000 -9.000000
v 9.999999 0.500000 -9.000000
v 9.999999 0.500000 -3.000000
v 9.999999 0.500000 3.000000
v 6.000000 0.500000 -3.000000
v 6.000000 0.500000 3.000000
v 6.000000 0.500000 9.000000
v 6.000000 -0.500000 -9.000000
v 6.000000 -0.500000 -3.000000
v 6.000000 -0.500000 3.000000
v 6.000000 -0.500000 9.000000
v 9.999999 3.500000 -3.000000
v 9.999999 3.500000 3.000000
v 9.999999 0.500000 9.000000
v 6.000000 0.500000 -9.000000
v 6.000000 3.500000 -3.000000
v 6.000000 3.500000 3.000000
vn -1.0000 -0.0000 -0.0000
vn -0.0000 -0.0000 -1.0000
vn 1.0000 -0.0000 -0.0000
vn -0.0000 -0.0000 1.0000
vn -0.0000 -1.0000 -0.0000
vn -0.0000 1.0000 -0.0000
vn -0.0000 0.8944 -0.4472
vn -0.0000 0.8944 0.4472
vt 0.375000 0.200000
vt 0.625000 0.200000
vt 0.625000 0.250000
vt 0.375000 0.250000
vt 0.375000 0.450000
vt 0.625000 0.450000
vt 0.625000 0.500000
vt 0.375000 0.500000
vt 0.375000 0.700000
vt 0.625000 0.700000
vt 0.625000 0.750000
vt 0.375000 0.750000
vt 0.375000 0.800000
vt 0.625000 0.800000
vt 0.625000 1.000000
vt 0.375000 1.000000
vt 0.325000 0.700000
vt 0.325000 0.750000
vt 0.675000 0.700000
vt 0.875000 0.700000
vt 0.875000 0.750000
vt 0.675000 0.750000
vt 0.125000 0.700000
vt 0.125000 0.750000
vt 0.125000 0.500000
vt 0.325000 0.500000
vt 0.325000 0.550000
vt 0.125000 0.550000
vt 0.325000 0.600000
vt 0.125000 0.600000
vt 0.325000 0.650000
vt 0.125000 0.650000
vt 0.675000 0.500000
vt 0.675000 0.550000
vt 0.625000 0.550000
vt 0.675000 0.650000
vt 0.625000 0.650000
vt 0.625000 0.600000
vt 0.875000 0.500000
vt 0.875000 0.550000
vt 0.875000 0.600000
vt 0.675000 0.600000
vt 0.875000 0.650000
vt 0.375000 0.550000
vt 0.375000 0.600000
vt 0.375000 0.650000
vt 0.375000 0.000000
vt 0.625000 0.000000
vt 0.625000 0.050000
vt 0.375000 0.050000
vt 0.625000 0.100000
vt 0.375000 0.100000
vt 0.625000 0.150000
vt 0.375000 0.150000
s 0
f 13/1/1 20/2/1 4/3/1 3/4/1
f 9/5/2 10/6/2 8/7/2 7/8/2
f 21/9/3 37/10/3 6/11/3 5/12/3
f 11/13/4 12/14/4 2/15/4 1/16/4
f 34/17/5 21/9/5 5/12/5 11/18/5
f 30/19/6 17/20/6 2/21/6 12/22/6
f 37/10/6 30/19/6 12/22/6 6/11/6
f 16/23/5 34/17/5 11/18/5 1/24/5
f 5/12/4 6/11/4 12/14/4 11/13/4
f 3/4/2 4/3/2 10/6/2 9/5/2
f 3/25/5 9/26/5 31/27/5 13/28/5
f 13/28/5 31/27/5 32/29/5 14/30/5
f 14/30/5 32/29/5 33/31/5 15/32/5
f 15/32/5 33/31/5 34/17/5 16/23/5
f 8/7/6 10/33/6 38/34/6 25/35/6
f 29/36/1 30/19/1 40/36/1
f 27/37/3 26/38/3 35/38/3 36/37/3
f 10/33/6 4/39/6 20/40/6 38/34/6
f 38/34/6 20/40/6 19/41/6 28/42/6
f 28/42/6 19/41/6 18/43/6 29/36/6
f 29/36/6 18/43/6 17/20/6 30/19/6
f 9/26/5 7/8/5 24/44/5 31/27/5
f 31/27/5 24/44/5 23/45/5 32/29/5
f 32/29/5 23/45/5 22/46/5 33/31/5
f 33/31/5 22/46/5 21/9/5 34/17/5
f 7/8/3 8/7/3 25/35/3 24/44/3
f 24/44/3 25/35/3 26/38/3 23/45/3
f 23/45/3 26/38/3 27/37/3 22/46/3
f 22/46/3 27/37/3 37/10/3 21/9/3
f 1/47/1 2/48/1 17/49/1 16/50/1
f 16/50/1 17/49/1 18/51/1 15/52/1
f 15/52/1 18/51/1 19/53/1 14/54/1
f 14/54/1 19/53/1 20/2/1 13/1/1
f 25/35/7 38/34/7 39/42/7 35/38/7
f 35/38/6 39/42/6 40/36/6 36/37/6
f 36/37/8 40/36/8 30/19/8 37/10/8
f 38/34/1 28/42/1 39/42/1
f 37/10/3 27/37/3 36/37/3
f 26/38/3 25/35/3 35/38/3
f 28/42/1 29/36/1 40/36/1 39/42/1
