# Blender 4.0.1
# www.blender.org
o mana
v -0.000000 -0.358579 0.141421
v -0.141421 -0.358579 0.000000
v -0.000000 -0.358579 -0.141421
v 0.141421 -0.358579 0.000000
v -0.021639 -0.407333 0.071028
v 0.021639 -0.407333 0.071028
v -0.000000 -0.427866 0.030794
v -0.071028 -0.407333 -0.021639
v -0.071028 -0.407333 0.021639
v -0.030794 -0.427866 0.000000
v 0.021639 -0.407333 -0.071028
v -0.021639 -0.407333 -0.071028
v -0.000000 -0.427866 -0.030794
v 0.071028 -0.407333 0.021639
v 0.071028 -0.407333 -0.021639
v 0.030794 -0.427866 0.000000
v -0.000000 0.141421 0.358579
v -0.141421 -0.000000 0.358579
v -0.000000 -0.141421 0.358579
v 0.141421 -0.000000 0.358579
v -0.021639 0.071028 0.407333
v 0.021639 0.071028 0.407333
v -0.000000 0.030794 0.427866
v -0.071028 -0.021639 0.407333
v -0.071028 0.021639 0.407333
v -0.030794 -0.000000 0.427866
v 0.021639 -0.071028 0.407333
v -0.021639 -0.071028 0.407333
v -0.000000 -0.030794 0.427866
v 0.071028 0.021639 0.407333
v 0.071028 -0.021639 0.407333
v 0.030794 -0.000000 0.427866
v -0.358579 -0.141421 0.000000
v -0.358579 -0.000000 0.141421
v -0.358579 0.141421 0.000000
v -0.358579 -0.000000 -0.141421
v -0.407333 -0.071028 0.021639
v -0.407333 -0.071028 -0.021639
v -0.427866 -0.030794 0.000000
v -0.407333 0.021639 0.071028
v -0.407333 -0.021639 0.071028
v -0.427866 -0.000000 0.030794
v -0.407333 0.071028 -0.021639
v -0.407333 0.071028 0.021639
v -0.427866 0.030794 0.000000
v -0.407333 -0.021639 -0.071028
v -0.407333 0.021639 -0.071028
v -0.427866 -0.000000 -0.030794
v -0.000000 0.358579 -0.141421
v -0.141421 0.358579 0.000000
v -0.000000 0.358579 0.141421
v 0.141421 0.358579 0.000000
v -0.021639 0.407333 -0.071028
v 0.021639 0.407333 -0.071028
v -0.000000 0.427866 -0.030794
v -0.071028 0.407333 0.021639
v -0.071028 0.407333 -0.021639
v -0.030794 0.427866 0.000000
v 0.021639 0.407333 0.071028
v -0.021639 0.407333 0.071028
v -0.000000 0.427866 0.030794
v 0.071028 0.407333 -0.021639
v 0.071028 0.407333 0.021639
v 0.030794 0.427866 0.000000
v 0.141421 -0.000000 -0.358579
v -0.000000 -0.141421 -0.358579
v -0.141421 -0.000000 -0.358579
v -0.000000 0.141421 -0.358579
v 0.071028 -0.021639 -0.407333
v 0.071028 0.021639 -0.407333
v 0.030794 -0.000000 -0.427866
v -0.021639 -0.071028 -0.407333
v 0.021639 -0.071028 -0.407333
v -0.000000 -0.030794 -0.427866
v -0.071028 0.021639 -0.407333
v -0.071028 -0.021639 -0.407333
v -0.030794 -0.000000 -0.427866
v 0.021639 0.071028 -0.407333
v -0.021639 0.071028 -0.407333
v -0.000000 0.030794 -0.427866
v 0.358579 -0.000000 -0.141421
v 0.358579 0.141421 0.000000
v 0.358579 -0.000000 0.141421
v 0.358579 -0.141421 0.000000
v 0.407333 0.021639 -0.071028
v 0.407333 -0.021639 -0.071028
v 0.427866 -0.000000 -0.030794
v 0.407333 0.071028 0.021639
v 0.407333 0.071028 -0.021639
v 0.427866 0.030794 0.000000
v 0.407333 -0.021639 0.071028
v 0.407333 0.021639 0.071028
v 0.427866 -0.000000 0.030794
v 0.407333 -0.071028 -0.021639
v 0.407333 -0.071028 0.021639
v 0.427866 -0.030794 0.000000
vn 0.5774 -0.5774 0.5774
vn -0.5774 0.5774 -0.5774
vn -0.5774 -0.5774 0.5774
vn 0.5774 0.5774 -0.5774
vn 0.5774 0.5774 0.5774
vn -0.5774 0.5774 0.5774
vn -0.5774 -0.5774 -0.5774
vn -0.0000 -0.8475 0.5308
vn -0.3004 -0.9053 0.3004
vn -0.5308 -0.8475 -0.0000
vn -0.3004 -0.9053 -0.3004
vn -0.0000 -0.8475 -0.5308
vn 0.3004 -0.9053 -0.3004
vn 0.5308 -0.8475 -0.0000
vn 0.3004 -0.9053 0.3004
vn -0.0000 -1.0000 -0.0000
vn -0.0000 0.5308 0.8475
vn -0.3004 0.3004 0.9053
vn -0.5308 -0.0000 0.8475
vn -0.3004 -0.3004 0.9053
vn -0.0000 -0.5308 0.8475
vn 0.3004 -0.3004 0.9053
vn 0.5308 -0.0000 0.8475
vn 0.3004 0.3004 0.9053
vn -0.0000 -0.0000 1.0000
vn -0.8475 -0.5308 -0.0000
vn -0.9053 -0.3004 0.3004
vn -0.8475 -0.0000 0.5308
vn -0.9053 0.3004 0.3004
vn -0.8475 0.5308 -0.0000
vn -0.9053 0.3004 -0.3004
vn -0.8475 -0.0000 -0.5308
vn -0.9053 -0.3004 -0.3004
vn -1.0000 -0.0000 -0.0000
vn -0.0000 0.8475 -0.5308
vn -0.3004 0.9053 -0.3004
vn -0.5308 0.8475 -0.0000
vn -0.3004 0.9053 0.3004
vn -0.0000 0.8475 0.5308
vn 0.3004 0.9053 0.3004
vn 0.5308 0.8475 -0.0000
vn 0.3004 0.9053 -0.3004
vn -0.0000 1.0000 -0.0000
vn 0.5308 -0.0000 -0.8475
vn 0.3004 -0.3004 -0.9053
vn -0.0000 -0.5308 -0.8475
vn -0.3004 -0.3004 -0.9053
vn -0.5308 -0.0000 -0.8475
vn -0.3004 0.3004 -0.9053
vn -0.0000 0.5308 -0.8475
vn 0.3004 0.3004 -0.9053
vn -0.0000 -0.0000 -1.0000
vn 0.8475 -0.0000 -0.5308
vn 0.9053 0.3004 -0.3004
vn 0.8475 0.5308 -0.0000
vn 0.9053 0.3004 0.3004
vn 0.8475 -0.0000 0.5308
vn 0.9053 -0.3004 0.3004
vn 0.8475 -0.5308 -0.0000
vn 0.9053 -0.3004 -0.3004
vn 1.0000 -0.0000 -0.0000
vn 0.5774 -0.5774 -0.5774
vt 0.250000 0.660355
vt 0.255410 0.642757
vt 0.267757 0.630410
vt 0.285355 0.625000
vt 0.339645 0.625000
vt 0.351833 0.630410
vt 0.351833 0.642757
vt 0.339645 0.660355
vt 0.285355 0.714645
vt 0.267757 0.726833
vt 0.255410 0.726833
vt 0.250000 0.714645
vt 0.589645 0.125000
vt 0.601833 0.130410
vt 0.601833 0.142757
vt 0.589645 0.160355
vt 0.535355 0.214645
vt 0.517757 0.226833
vt 0.505410 0.226833
vt 0.500000 0.214645
vt 0.500000 0.160355
vt 0.505410 0.142757
vt 0.517757 0.130410
vt 0.535355 0.125000
vt 0.214645 0.625000
vt 0.232243 0.630410
vt 0.244590 0.642757
vt 0.244590 0.726833
vt 0.232243 0.726833
vt 0.214645 0.714645
vt 0.160355 0.660355
vt 0.148167 0.642757
vt 0.148167 0.630410
vt 0.160355 0.625000
vt 0.589645 0.375000
vt 0.601833 0.380410
vt 0.601833 0.392757
vt 0.589645 0.410355
vt 0.535355 0.464645
vt 0.517757 0.476833
vt 0.505410 0.476833
vt 0.500000 0.464645
vt 0.500000 0.410355
vt 0.505410 0.392757
vt 0.517757 0.380410
vt 0.535355 0.375000
vt 0.589645 0.839645
vt 0.601833 0.857243
vt 0.601833 0.869590
vt 0.589645 0.875000
vt 0.535355 0.875000
vt 0.517757 0.869590
vt 0.505410 0.857243
vt 0.500000 0.839645
vt 0.500000 0.785355
vt 0.505410 0.773167
vt 0.517757 0.773167
vt 0.535355 0.785355
vt 0.500000 0.035355
vt 0.505410 0.023167
vt 0.517757 0.023167
vt 0.535355 0.035355
vt 0.589645 0.089645
vt 0.601833 0.107243
vt 0.601833 0.119590
vt 0.517757 0.119590
vt 0.505410 0.107243
vt 0.500000 0.089645
vt 0.250000 0.589645
vt 0.244590 0.607243
vt 0.232243 0.619590
vt 0.148167 0.619590
vt 0.148167 0.607243
vt 0.160355 0.589645
vt 0.214645 0.535355
vt 0.232243 0.523167
vt 0.244590 0.523167
vt 0.250000 0.535355
vt 0.250000 0.637866
vt 0.237134 0.625000
vt 0.250000 0.612134
vt 0.255410 0.607243
vt 0.267757 0.619590
vt 0.262866 0.625000
vt 0.253445 0.636144
vt 0.238856 0.628445
vt 0.246555 0.613856
vt 0.261144 0.621555
vt 0.512866 0.012866
vt 0.521363 0.019560
vt 0.500000 0.012866
vt 0.237134 0.737134
vt 0.228637 0.730440
vt 0.250000 0.737134
vt 0.262866 0.737134
vt 0.500000 0.862134
vt 0.498197 0.853637
vt 0.512866 0.875000
vt 0.511144 0.871555
vt 0.503445 0.014589
vt 0.246555 0.735411
vt 0.261144 0.735411
vt 0.137866 0.625000
vt 0.137866 0.637866
vt 0.500000 0.112134
vt 0.498197 0.103637
vt 0.512866 0.125000
vt 0.500000 0.137866
vt 0.137866 0.612134
vt 0.144560 0.603637
vt 0.139589 0.621555
vt 0.139589 0.636144
vt 0.511144 0.121555
vt 0.503445 0.136144
vt 0.612134 0.137866
vt 0.605440 0.146363
vt 0.612134 0.125000
vt 0.612134 0.112134
vt 0.612134 0.875000
vt 0.605440 0.876803
vt 0.612134 0.862134
vt 0.612134 0.387866
vt 0.605440 0.396363
vt 0.612134 0.375000
vt 0.610411 0.378445
vt 0.610411 0.128445
vt 0.610411 0.113856
vt 0.610411 0.863856
vt 0.285355 0.535355
vt 0.267757 0.523167
vt 0.262866 0.512866
vt 0.271363 0.519560
vt 0.255410 0.523167
vt 0.250000 0.512866
vt 0.237134 0.512866
vt 0.500000 0.237134
vt 0.498197 0.230440
vt 0.512866 0.237134
vt 0.512866 0.375000
vt 0.521363 0.373197
vt 0.500000 0.387866
vt 0.503445 0.386144
vt 0.253445 0.514589
vt 0.238856 0.514589
vt 0.511144 0.235411
vt 0.500000 0.487134
vt 0.498197 0.480440
vt 0.512866 0.487134
vt 0.512866 0.762866
vt 0.521363 0.769560
vt 0.500000 0.762866
vt 0.362134 0.637866
vt 0.355440 0.646363
vt 0.362134 0.625000
vt 0.351833 0.619590
vt 0.351833 0.607243
vt 0.362134 0.612134
vt 0.360411 0.613856
vt 0.511144 0.485411
vt 0.503445 0.764589
vt 0.360411 0.628445
vt 0.339645 0.589645
s 0
f 1/1/1 6/2/1 14/3/1 4/4/1 84/5/1 95/6/1 91/7/1 83/8/1 20/9/1 31/10/1 27/11/1 19/12/1
f 50/13/2 57/14/2 53/15/2 49/16/2 68/17/2 79/18/2 75/19/2 67/20/2 36/21/2 47/22/2 43/23/2 35/24/2
f 2/25/3 9/26/3 5/27/3 1/1/3 19/12/3 28/28/3 24/29/3 18/30/3 34/31/3 41/32/3 37/33/3 33/34/3
f 49/35/4 54/36/4 62/37/4 52/38/4 82/39/4 89/40/4 85/41/4 81/42/4 65/43/4 70/44/4 78/45/4 68/46/4
f 52/47/5 63/48/5 59/49/5 51/50/5 17/51/5 22/52/5 30/53/5 20/54/5 83/55/5 92/56/5 88/57/5 82/58/5
f 18/59/6 25/60/6 21/61/6 17/62/6 51/63/6 60/64/6 56/65/6 50/13/6 35/24/6 44/66/6 40/67/6 34/68/6
f 3/69/7 12/70/7 8/71/7 2/25/7 33/34/7 38/72/7 46/73/7 36/74/7 67/75/7 76/76/7 72/77/7 66/78/7
f 1/1/8 5/27/8 7/79/8 6/2/8
f 5/27/9 9/26/9 10/80/9 7/79/9
f 2/25/10 8/71/10 10/80/10 9/26/10
f 8/71/11 12/70/11 13/81/11 10/80/11
f 3/69/12 11/82/12 13/81/12 12/70/12
f 11/82/13 15/83/13 16/84/13 13/81/13
f 4/4/14 14/3/14 16/84/14 15/83/14
f 14/3/15 6/2/15 7/79/15 16/84/15
f 7/85/16 10/86/16 13/87/16 16/88/16
f 17/62/17 21/61/17 23/89/17 22/90/17
f 21/61/18 25/60/18 26/91/18 23/89/18
f 18/30/19 24/29/19 26/92/19 25/93/19
f 24/29/20 28/28/20 29/94/20 26/92/20
f 19/12/21 27/11/21 29/94/21 28/28/21
f 27/11/22 31/10/22 32/95/22 29/94/22
f 20/54/23 30/53/23 32/96/23 31/97/23
f 30/53/24 22/52/24 23/98/24 32/96/24
f 23/99/25 26/100/25 29/101/25 32/102/25
f 33/34/26 37/33/26 39/103/26 38/72/26
f 37/33/27 41/32/27 42/104/27 39/103/27
f 34/68/28 40/67/28 42/105/28 41/106/28
f 40/67/29 44/66/29 45/107/29 42/105/29
f 35/24/30 43/23/30 45/107/30 44/66/30
f 43/23/31 47/22/31 48/108/31 45/107/31
f 36/74/32 46/73/32 48/109/32 47/110/32
f 46/73/33 38/72/33 39/103/33 48/109/33
f 39/111/34 42/112/34 45/113/34 48/114/34
f 49/16/35 53/15/35 55/115/35 54/116/35
f 53/15/36 57/14/36 58/117/36 55/115/36
f 50/13/37 56/65/37 58/117/37 57/14/37
f 56/65/38 60/64/38 61/118/38 58/117/38
f 51/50/39 59/49/39 61/119/39 60/120/39
f 59/49/40 63/48/40 64/121/40 61/119/40
f 52/38/41 62/37/41 64/122/41 63/123/41
f 62/37/42 54/36/42 55/124/42 64/122/42
f 55/125/43 58/126/43 61/127/43 64/128/43
f 65/129/44 69/130/44 71/131/44 70/132/44
f 69/130/45 73/133/45 74/134/45 71/131/45
f 66/78/46 72/77/46 74/134/46 73/133/46
f 72/77/47 76/76/47 77/135/47 74/134/47
f 67/20/48 75/19/48 77/136/48 76/137/48
f 75/19/49 79/18/49 80/138/49 77/136/49
f 68/46/50 78/45/50 80/139/50 79/140/50
f 78/45/51 70/44/51 71/141/51 80/139/51
f 71/142/52 74/143/52 77/144/52 80/145/52
f 81/42/53 85/41/53 87/146/53 86/147/53
f 85/41/54 89/40/54 90/148/54 87/146/54
f 82/58/55 88/57/55 90/149/55 89/150/55
f 88/57/56 92/56/56 93/151/56 90/149/56
f 83/8/57 91/7/57 93/152/57 92/153/57
f 91/7/58 95/6/58 96/154/58 93/152/58
f 84/5/59 94/155/59 96/154/59 95/6/59
f 94/155/60 86/156/60 87/157/60 96/154/60
f 87/158/61 90/159/61 93/160/61 96/161/61
f 4/4/62 15/83/62 11/82/62 3/69/62 66/78/62 73/133/62 69/130/62 65/129/62 81/162/62 86/156/62 94/155/62 84/5/62
